<?xml version="1.0" standalone="no"?>
<!DOCTYPE svg PUBLIC "-//W3C//DTD SVG 20010904//EN"
 "http://www.w3.org/TR/2001/REC-SVG-20010904/DTD/svg10.dtd">
<svg version="1.0" xmlns="http://www.w3.org/2000/svg"
 width="1000.000000pt" height="1000.000000pt" viewBox="0 0 1000.000000 1000.000000"
 preserveAspectRatio="xMidYMid meet">
<metadata>
Created by potrace 1.14, written by Peter Selinger 2001-2017
</metadata>
<g transform="translate(0.000000,1000.000000) scale(0.100000,-0.100000)"
fill="#000000" stroke="none">
<path d="M4959 9099 c-80 -12 -139 -49 -197 -123 -39 -51 -46 -98 -47 -346 -2
-277 6 -316 80 -393 149 -153 408 -94 476 108 16 48 21 493 7 540 -28 86 -75
147 -141 182 -50 26 -127 40 -178 32z"/>
<path d="M2255 7980 c-52 -9 -103 -33 -136 -62 -108 -98 -134 -242 -64 -363
32 -55 226 -242 272 -261 135 -57 262 -22 358 98 24 29 46 105 46 152 0 61 -4
80 -25 131 -19 46 -204 237 -261 270 -59 34 -127 46 -190 35z"/>
<path d="M7624 7974 c-67 -19 -84 -31 -192 -138 -127 -123 -155 -172 -158
-273 -3 -62 1 -79 27 -131 66 -133 201 -190 348 -146 44 13 70 32 167 126 132
128 167 186 167 279 1 192 -182 336 -359 283z"/>
<path d="M4877 7574 c-1 -1 -42 -5 -92 -9 -49 -4 -97 -8 -105 -10 -8 -1 -40
-5 -70 -9 -45 -7 -160 -29 -205 -40 -487 -122 -894 -352 -1239 -701 -232 -234
-428 -528 -541 -810 -15 -38 -33 -83 -40 -100 -28 -66 -94 -295 -109 -380 -40
-218 -50 -320 -50 -510 0 -120 10 -298 19 -345 3 -13 7 -42 11 -65 8 -54 44
-227 49 -235 2 -4 6 -17 9 -31 17 -94 111 -340 187 -491 l39 -78 -818 -2 -817
-3 -54 -30 c-116 -64 -173 -189 -146 -316 22 -103 110 -191 214 -214 18 -4
1771 -7 3895 -7 l3861 0 50 22 c122 52 193 178 173 306 -15 94 -69 167 -162
217 l-41 22 -817 3 -816 2 63 133 c68 143 109 251 150 392 31 108 64 253 71
315 3 25 7 56 10 70 9 50 18 208 18 330 0 120 -11 317 -19 329 -1 3 -6 29 -9
56 -6 54 -14 101 -21 125 -2 8 -7 29 -9 45 -3 17 -13 55 -21 85 -8 30 -17 62
-19 71 -10 39 -47 150 -71 214 -24 65 -149 325 -177 370 -41 65 -144 222 -154
235 -155 196 -285 332 -434 454 -125 102 -113 93 -210 157 -371 244 -747 377
-1195 424 -54 6 -353 13 -358 9z"/>
<path d="M1115 5278 c-191 -50 -280 -284 -167 -438 85 -115 134 -129 452 -126
l235 1 54 28 c104 55 159 144 159 257 0 67 -21 130 -58 178 -28 35 -93 81
-132 94 -39 13 -499 18 -543 6z"/>
<path d="M8373 5279 c-166 -34 -265 -218 -204 -379 25 -66 83 -129 149 -161
45 -22 59 -23 292 -24 264 -2 296 3 372 53 66 43 120 146 120 228 0 113 -69
220 -172 267 -41 18 -67 20 -285 22 -132 0 -254 -2 -272 -6z"/>
<path d="M2279 2609 c-222 -36 -312 -318 -154 -481 20 -20 57 -46 83 -59 l47
-24 2745 0 2745 0 47 24 c162 83 213 272 113 422 -31 48 -95 95 -149 111 -31
9 -704 12 -2742 12 -1485 1 -2716 -1 -2735 -5z"/>
<path d="M3355 1441 c-104 -49 -157 -129 -163 -244 -5 -86 22 -157 81 -214 49
-47 87 -68 142 -79 66 -12 3144 -8 3189 4 63 18 131 70 166 129 87 143 29 332
-123 404 l-62 29 -1585 0 -1585 0 -60 -29z"/>
</g>
</svg>
