<svg width="1124" height="241" viewBox="0 0 1124 241" fill="none" xmlns="http://www.w3.org/2000/svg">
<g clip-path="url(#clip0_410_231)">
<path d="M165.85 93.8222L165.885 93.7077C170.557 78.3344 180.316 61.5971 194.261 44.7716C177.7 58.3772 161.243 67.911 146.109 72.512C141.592 53.0883 142.812 27.9263 149.493 0C141.352 26.7747 130.018 48.5744 116.668 62.8463L116.75 62.9336L115.6 120.457L165.85 93.8222Z" fill="#60A060"/>
<path d="M165.885 93.7077L165.85 93.8222L115.6 120.457L144.987 168.121L144.959 168.238C160.094 172.839 176.551 182.373 193.112 195.978C179.167 179.153 169.407 162.416 164.735 147.042C187.074 141.846 217.004 144.24 250 153.809C222.309 145.627 199.776 134.06 185.15 120.375C198.377 107.999 218.071 97.355 242.198 89.3804C212.756 96.8832 186.186 98.4298 165.885 93.7077Z" fill="#E6C050"/>
<path d="M144.959 168.238L144.987 168.121L115.6 120.457L87.8203 168.203L87.7057 168.238C91.4988 184.55 91.2466 204.909 87.1109 227.553C94.742 206.789 104.435 189.752 115.518 177.904C128.868 192.176 140.202 213.975 148.344 240.75C141.662 212.824 140.443 187.662 144.959 168.238Z" fill="#DA7756"/>
<path d="M67.6975 93.8222L67.6628 93.7077C49.3704 97.9626 25.9878 97.1279 0 91.4321C21.4229 99.1435 38.9785 109.032 51.1015 120.375C39.2863 131.43 22.3108 141.104 1.62406 148.726C26.5016 143.569 48.874 142.939 66.5133 147.042C61.4471 163.712 50.3994 181.986 34.5198 200.236C52.7678 184.354 71.0385 173.305 87.7057 168.238L87.8203 168.203L115.6 120.457L67.6975 93.8222Z" fill="#A94C4C"/>
<path d="M67.6628 93.7077L67.6975 93.8222L115.6 120.457L116.75 62.9336L116.668 62.8463C105.585 50.9979 95.8915 33.9612 88.2604 13.1969C92.396 35.8413 92.6483 56.2001 88.8552 72.512C72.188 67.445 53.9173 56.3956 35.6693 40.5136C51.5489 58.7644 62.5966 77.0379 67.6628 93.7077Z" fill="#9E4BC5"/>
<path d="M346.819 52.5137V43.2529L453.044 43.25V53.4143L431.347 55.4471L469.317 163.64L505.93 55.673L486.041 53.4143V43.25H538.25V52.5108L518.587 55.2213L470.899 195.94H460.954L408.294 54.5437L396.341 53.1102L381.398 54.9983V132.473C381.398 148.284 379.063 161.008 374.392 170.645C369.721 180.132 363.317 187.059 355.181 191.426C347.045 195.642 337.778 197.75 327.382 197.75C316.533 197.75 306.965 195.642 298.678 191.426C290.391 187.209 283.912 180.659 279.241 171.775C274.721 162.89 272.461 151.446 272.461 137.442V113.048V83.91C272.461 74.1222 272.31 64.4097 272.009 54.7724L253.25 52.5137V43.2529H317.211V52.5137L294.158 55.2242C294.007 64.7108 293.857 74.2728 293.706 83.91V113.048V130.892C293.706 143.691 295.213 153.855 298.226 161.384C301.39 168.763 305.76 174.033 311.335 177.196C316.91 180.207 323.539 181.713 331.224 181.713C344.031 181.713 353.674 177.647 360.153 169.516C366.632 161.234 369.872 147.079 369.872 127.052V55.45L346.819 52.5137Z" fill="#202020"/>
<path d="M1001.45 195.946V187.729L1018.34 184.534C1018.49 178.752 1018.57 172.513 1018.57 165.818C1018.72 159.123 1018.8 153.189 1018.8 148.015V137.06C1018.8 130.821 1018.72 125.648 1018.57 121.539C1018.57 117.431 1018.42 113.095 1018.11 108.53L1000.08 106.476V98.4871L1032.03 84.5645L1035.46 86.8469L1037.28 105.106C1042.91 99.0197 1049.38 94.0745 1056.68 90.2705C1063.99 86.4665 1071.14 84.5645 1078.14 84.5645C1088.03 84.5645 1095.33 87.912 1100.05 94.607C1104.92 101.15 1107.35 111.877 1107.35 126.789V148.015C1107.35 153.189 1107.35 159.123 1107.35 165.818C1107.51 172.513 1107.66 178.752 1107.81 184.534L1123.79 187.729V195.946H1070.84V187.729L1087.73 184.534C1087.88 178.904 1087.95 172.741 1087.95 166.046C1088.11 159.199 1088.18 153.189 1088.18 148.015V128.615C1088.18 118.116 1086.66 110.888 1083.62 106.932C1080.73 102.976 1075.93 100.998 1069.24 100.998C1064.06 100.998 1059.04 102.063 1054.17 104.193C1049.31 106.323 1043.98 109.823 1038.2 114.692V148.015C1038.2 153.037 1038.2 158.971 1038.2 165.818C1038.35 172.513 1038.5 178.752 1038.65 184.534L1054.4 187.729V195.946H1001.45Z" fill="#202020"/>
<path d="M956.91 95.0635C952.65 95.0635 948.313 96.2808 943.9 98.7154C939.64 101.15 935.912 105.03 932.717 110.356C929.673 115.681 927.695 122.757 926.782 131.582H968.322C973.8 131.582 977.376 130.441 979.05 128.158C980.875 125.876 981.788 123.061 981.788 119.714C981.788 115.301 980.647 111.269 978.365 107.617C976.235 103.813 973.267 100.77 969.463 98.4871C965.812 96.2047 961.627 95.0635 956.91 95.0635ZM956.682 198.913C941.314 198.913 928.989 193.968 919.707 184.077C910.425 174.035 905.784 160.264 905.784 142.766C905.784 131.049 908.143 120.855 912.86 112.182C917.729 103.508 924.12 96.7373 932.032 91.8682C940.096 86.999 948.846 84.5645 958.28 84.5645C966.192 84.5645 973.343 86.3143 979.734 89.814C986.125 93.3137 991.222 98.335 995.026 104.878C998.83 111.269 1000.73 119.105 1000.73 128.387C1000.73 130.973 1000.58 133.408 1000.28 135.69C999.972 137.821 999.591 139.647 999.135 141.168H926.326C926.63 155.167 930.13 165.818 936.825 173.122C943.52 180.426 952.345 184.077 963.301 184.077C970.605 184.077 976.691 182.632 981.56 179.741C986.429 176.698 990.918 172.818 995.026 168.101L1000.5 172.437C996.244 180.502 990.462 186.968 983.158 191.838C975.854 196.555 967.029 198.913 956.682 198.913Z" fill="#202020"/>
<path d="M859.344 195.945V187.729L877.603 184.533C877.755 178.295 877.831 172.208 877.831 166.274C877.983 160.188 878.059 154.101 878.059 148.015V47.817L859.344 45.5346V37.5462L894.949 27.2754L898.145 29.1013L897.232 61.5115V148.015C897.232 154.101 897.232 160.188 897.232 166.274C897.384 172.36 897.536 178.447 897.688 184.533L915.947 187.729V195.945H859.344Z" fill="#202020"/>
<path d="M814.186 195.945V187.729L832.445 184.533C832.597 178.295 832.673 172.208 832.673 166.274C832.825 160.188 832.901 154.101 832.901 148.015V47.817L814.186 45.5346V37.5462L849.791 27.2754L852.986 29.1013L852.074 61.5115V148.015C852.074 154.101 852.074 160.188 852.074 166.274C852.226 172.36 852.378 178.447 852.53 184.533L870.789 187.729V195.945H814.186Z" fill="#202020"/>
<path d="M772.119 198.913C763.293 198.913 754.849 196.859 746.784 192.751C738.872 188.49 732.405 182.175 727.384 173.807C722.362 165.286 719.852 154.787 719.852 142.309C719.852 129.68 722.362 119.105 727.384 110.584C732.405 101.911 738.872 95.4439 746.784 91.1834C754.849 86.7708 763.293 84.5645 772.119 84.5645C780.944 84.5645 789.313 86.7708 797.225 91.1834C805.29 95.4439 811.833 101.911 816.854 110.584C822.027 119.105 824.614 129.68 824.614 142.309C824.614 154.787 822.027 165.286 816.854 173.807C811.833 182.175 805.29 188.49 797.225 192.751C789.313 196.859 780.944 198.913 772.119 198.913ZM772.119 188.642C782.009 188.642 789.617 184.762 794.943 177.002C800.268 169.09 802.931 157.525 802.931 142.309C802.931 126.941 800.268 115.225 794.943 107.16C789.617 99.0958 782.009 95.0635 772.119 95.0635C762.228 95.0635 754.62 99.0958 749.295 107.16C744.121 115.225 741.534 126.941 741.534 142.309C741.534 157.525 744.121 169.09 749.295 177.002C754.62 184.762 762.228 188.642 772.119 188.642Z" fill="#202020"/>
<path d="M593.357 52.6103V43.2524H657.721V52.6103L636.038 55.121C635.886 64.8592 635.734 74.6736 635.582 84.564C635.582 94.3023 635.582 104.117 635.582 114.007V128.386L694.925 55.8057L678.491 52.6103V43.2524H730.987V52.6103L708.847 55.5774L670.731 101.454L716.836 184.305L734.41 186.588V195.945H675.752V186.588L694.468 184.305L658.178 116.518L635.582 143.678C635.582 149.765 635.582 156.232 635.582 163.079C635.734 169.926 635.886 176.925 636.038 184.077L657.721 186.588V195.945H593.357V186.588L614.356 184.077C614.66 174.491 614.812 164.753 614.812 154.862C614.812 144.972 614.812 135.081 614.812 125.191V114.007C614.812 104.117 614.812 94.3023 614.812 84.564C614.812 74.6736 614.66 64.8592 614.356 55.121L593.357 52.6103Z" fill="#202020"/>
<path d="M520.515 122.516L520.916 120.413C521.621 116.717 523.022 114.541 525.12 113.884C527.429 113.268 531.5 113.038 541.333 113.196C551.402 113.267 553.941 113.237 562.952 113.106C571.988 112.847 575.047 112.682 578.129 112.609C581.447 112.449 584.058 112.551 585.961 112.914C590.614 113.801 592.527 116.411 591.701 120.744L591.482 121.891C590.923 124.823 589.489 126.597 587.179 127.213C585.13 127.615 582.577 127.789 579.519 127.734C566.652 127.394 565.372 127.356 555.678 127.621C545.984 127.886 539.807 128.095 537.148 128.249C530.56 128.313 527.68 128.043 524.508 127.438C521.336 126.833 520.005 125.193 520.515 122.516Z" fill="#202020"/>
</g>
<defs>
<clipPath id="clip0_410_231">
<rect width="1124" height="240.75" fill="white"/>
</clipPath>
</defs>
</svg>
