<svg width="500" height="130" viewBox="0 0 500 130" fill="none" xmlns="http://www.w3.org/2000/svg">
<g clip-path="url(#clip0_9_2)">
<path d="M293.294 33.7372H314.114V92.911H319.594V101.677H293.294V92.911H298.774V42.5036H293.294V33.7372Z" fill="black"/>
<path d="M472.505 60.0365V51.2701H498.804V60.0365H491.626L480.75 71.9814L495.406 92.911H499.9V101.677H483.497L477.107 92.911L468.386 80.4533V92.911V101.677H453.046V92.911V42.5036H447.566V33.7372H468.386V71.4769L478.805 60.0365H472.505Z" fill="black"/>
<path d="M438.006 51.1772C436.088 50.4826 433.851 50.1358 431.294 50.1358C429.322 50.1358 427.505 50.3552 425.843 50.7928C424.181 51.2315 422.729 51.8613 421.487 52.6833C420.263 53.4876 419.204 54.3817 418.309 55.3687C417.433 56.3359 416.656 57.4316 415.981 58.6557L412.145 51.2315H395.133V59.9979H400.612V92.8724V101.639H415.953V92.8724L416.09 67.3679C417.533 65.0481 419.058 63.24 420.665 61.9428C422.272 60.6466 423.843 59.9979 425.377 59.9979C427.058 59.9979 428.381 60.2998 429.349 60.9025C430.335 61.5051 431.084 62.6102 431.596 64.2167C432.125 65.8241 432.39 68.0708 432.39 70.9557V92.8724V101.639H447.731V92.8724V72.0524C447.731 69.2939 447.577 66.8467 447.265 64.7097C446.973 62.5549 446.443 60.5463 445.677 58.6829C444.928 56.8018 443.942 55.2591 442.718 54.0537C441.495 52.8296 439.924 51.8707 438.006 51.1772Z" fill="black"/>
<path d="M339.495 51.2147H318.676V59.9812H324.155V92.8556V101.622H339.495H345.624V92.8556H339.495V51.2147Z" fill="black"/>
<path d="M254.181 48.7163C257.628 47.3648 261.281 46.689 265.139 46.689C268.996 46.689 272.64 47.3648 276.067 48.7163C279.513 50.0669 282.51 51.9574 285.055 54.3858C287.602 56.7945 289.609 59.7713 291.078 63.3163C292.566 66.8603 293.311 70.7186 293.311 74.8903C293.311 79.0621 292.566 82.9194 291.078 86.4644C289.609 90.0094 287.602 92.9956 285.055 95.4241C282.51 97.8337 279.513 99.7138 276.067 101.064C272.64 102.416 268.996 103.092 265.139 103.092C261.281 103.092 257.628 102.416 254.181 101.064C250.754 99.7138 247.768 97.8337 245.221 95.4241C242.695 92.9956 240.687 90.0094 239.199 86.4644C237.73 82.9194 236.996 79.0621 236.996 74.8903C236.996 70.7186 237.73 66.8603 239.199 63.3163C240.687 59.7713 242.695 56.7945 245.221 54.3858C247.768 51.9574 250.754 50.0669 254.181 48.7163ZM265.139 56.0894C263.768 56.0894 262.543 56.2847 261.467 56.6764C260.39 57.0681 259.401 57.7147 258.5 58.6161C257.599 59.5164 256.854 60.6821 256.267 62.112C255.699 63.5409 255.249 65.3238 254.915 67.4577C254.602 69.5927 254.445 72.0702 254.445 74.8903C254.445 77.7105 254.602 80.188 254.915 82.323C255.249 84.4569 255.699 86.2398 256.267 87.6687C256.854 89.0986 257.599 90.2643 258.5 91.1646C259.401 92.066 260.39 92.7126 261.467 93.1043C262.543 93.4959 263.768 93.6913 265.139 93.6913C266.862 93.6913 268.36 93.3685 269.633 92.722C270.907 92.0556 272.013 90.9986 272.953 89.5488C273.913 88.1001 274.627 86.1511 275.097 83.7038C275.587 81.2555 275.831 78.3173 275.831 74.8903C275.831 71.4634 275.587 68.5252 275.097 66.0769C274.627 63.6296 273.913 61.6806 272.953 60.2319C272.013 58.7821 270.907 57.7345 269.633 57.088C268.36 56.4226 266.862 56.0894 265.139 56.0894Z" fill="black"/>
<path d="M223.721 48.3602L234.318 48.3299V58.9555L223.721 58.9096V69.7629H213.096V80.3875H223.721V91.0132H234.346V101.639H223.721H213.096V91.0132V80.3875H202.47V91.0132V101.639H191.845V91.0132V80.3875V69.7629V59.1373V48.5116V37.887H181.22V27.2614H191.845H202.47V37.887V48.5116V59.1373V69.7629H213.096V59.1373V48.3602H223.721Z" fill="#EF42FF"/>
<path d="M350.161 60.0335V92.9069V101.673H365.502V92.9069V60.0335H371.214V51.267H365.502C365.502 49.6042 365.794 48.0343 366.379 46.5542C366.964 45.0752 367.712 43.8427 368.626 42.8567C369.538 41.8519 370.543 40.9839 371.639 40.2538C372.661 39.554 373.654 39.038 374.613 38.7059L370.483 34.7295L375.513 29.4235C372.45 29.2302 364.5 30.0961 357.202 35.1034C352.508 38.9388 350.161 44.3263 350.161 51.267H344.057V60.0335H350.161Z" fill="black"/>
<path d="M390.854 92.9068V51.267H375.513V60.0334V92.9068H370.033V101.673H396.333V92.9068H390.854Z" fill="black"/>
<path d="M331.396 25.2768L322.331 34.9008L331.955 43.9652L341.02 34.3412L331.396 25.2768Z" fill="#FF00FF"/>
<path d="M382.367 25.2768L373.303 34.9008L382.927 43.9652L391.991 34.3412L382.367 25.2768Z" fill="#FF00FF"/>
<path d="M54.3892 41.0236V47.7324H74.8738V54.5603H95.5997V61.3892H115.965V54.5603H122.674V47.7324H115.965V41.0236H109.016V27.3658H102.188V20.418L88.5316 20.5377V27.3658H74.9939V34.1947H68.0459V41.0236H54.3892Z" fill="#BD00B6"/>
<path d="M27.1946 75.046H40.8514H74.8738H109.016V68.3372H115.965V61.3892H95.5997V54.5603H74.8738V47.7324H54.3891H40.8514V54.5603H27.1946V61.3892H20.2456V68.3372H27.1946V75.046Z" fill="#751971"/>
<path d="M0 95.6518H54.508V88.7027H47.6802V81.8749H40.8513H6.70869V88.7027H0V95.6518Z" fill="#862081"/>
<path d="M40.8511 75.046V81.8749H47.68V88.7027H54.5079V95.6518V102.48H68.0456V109.188H88.5312H95.3591V102.48L81.7023 102.361V95.6518H74.8734V75.046H40.8511Z" fill="#BD00B6"/>
<path fill-rule="evenodd" clip-rule="evenodd" d="M109.016 116.017V109.188H115.965V116.017H109.016ZM115.965 116.017H122.913V122.845H115.965V116.017Z" fill="#862081"/>
<path d="M102.188 116.017V109.188H95.3591H88.5312V122.845H95.3591V116.017H102.188Z" fill="#862081"/>
<path d="M102.188 122.845H95.3594V129.674H102.188V122.845Z" fill="#862081"/>
<path d="M122.674 27.3658V20.418L129.502 20.5377V13.7092H122.674H115.965V20.418V27.3658H122.674Z" fill="black"/>
<path d="M122.674 20.418V27.3658H129.502V20.5377L122.674 20.418Z" fill="black"/>
<path d="M149.987 47.7324H143.16V34.1947H129.502V27.3658H122.674H115.965V20.418H102.188V27.3658H109.016V41.0236H115.965V47.7324H122.674V54.5603H115.965V61.3892V68.3372H109.016V75.046H74.8735V95.6518H81.7024V102.361L95.3592 102.48V109.188H102.188H109.016H115.965H122.913V102.361H129.502V95.5317H136.451V88.8229H143.16V81.8749H149.987V47.7324Z" fill="#EF42FF"/>
<path fill-rule="evenodd" clip-rule="evenodd" d="M88.5312 13.7092H95.3591V6.76094H102.308V0.0522461H136.331V6.76094H143.159V13.7092V27.3658V34.1947H129.502V27.3658V20.5377V13.7092H122.674H115.965V20.418H102.188L88.5312 20.5377V13.7092Z" fill="#862081"/>
<path d="M149.988 13.7092H143.16V27.3658H156.816V20.418H149.988V13.7092Z" fill="#BD00B6"/>
</g>
<defs>
<clipPath id="clip0_9_2">
<rect width="500" height="129.726" fill="black"/>
</clipPath>
</defs>
</svg>