<svg version="1.1" id="Layer_1" xmlns="http://www.w3.org/2000/svg" xmlns:xlink="http://www.w3.org/1999/xlink" x="0px" y="0px" width="100%" viewBox="0 0 1200 600" enable-background="new 0 0 1200 600" xml:space="preserve">
<path fill="#000000" opacity="1.000000" stroke="none" d=" M601.000000,1.000000   C800.953003,1.000000 1000.906006,1.000000 1200.929443,1.000000   C1200.929443,200.905991 1200.929443,400.812012 1200.929443,601.000000   C1001.307556,601.000000 801.615051,601.000000 601.460815,600.538757   C600.999451,400.385010 600.999756,200.692505 601.000000,1.000000  M998.398254,305.968964   C996.446106,303.760437 994.788574,301.731659 991.117554,301.762085   C965.624939,301.973419 940.129700,301.868835 914.635315,301.891113   C913.609680,301.892029 912.584290,302.149353 911.171509,302.339264   C942.535767,339.829102 973.495605,376.890015 1004.607849,413.822540   C1005.840027,415.285248 1008.519714,416.218353 1010.531799,416.229980   C1037.525024,416.386322 1064.519287,416.339661 1091.513306,416.317688   C1092.708984,416.316711 1093.904419,416.070343 1095.767212,415.864594   C1063.135742,379.021393 1031.019531,342.759918 998.398254,305.968964  M1021.162109,257.550293   C1019.501282,274.155029 1017.850159,290.763855 1002.033691,301.696228   C1014.798950,301.696228 1027.099487,302.139618 1039.355713,301.592804   C1057.971680,300.762329 1073.147461,293.023865 1082.844116,276.651245   C1106.000366,237.552200 1080.912476,188.693436 1035.612549,186.206879   C1008.075684,184.695374 980.388184,185.928146 952.889160,185.928146   C954.705566,186.268402 956.647827,186.631897 958.589966,186.996109   C967.562012,188.678696 976.746399,189.636978 985.462524,192.192535   C1004.555969,197.790649 1017.290466,210.155502 1020.482300,230.274673   C1021.847839,238.881866 1021.050659,247.832184 1021.162109,257.550293  M775.500000,301.754883   C785.166443,301.754883 794.832947,301.754883 804.499390,301.754883   C791.911316,297.505035 784.020325,289.007050 780.703247,276.576660   C774.840759,254.608124 774.704895,232.477264 780.664673,210.498917   C783.653503,199.476532 790.288574,191.269073 801.383301,187.246704   C802.360046,186.892578 803.296387,186.426788 804.619568,185.853317   C787.171326,185.853317 770.205078,184.943222 753.378113,186.085434   C732.700684,187.489014 718.069092,198.670212 710.136841,218.001572   C705.738831,228.719742 705.285461,240.031265 706.060730,251.416107   C707.788635,276.790375 723.862549,296.036072 748.114746,300.496735   C756.696655,302.075256 765.692932,301.400787 775.500000,301.754883  M844.966187,366.291229   C844.311890,372.072388 843.983459,377.913086 842.940186,383.623169   C840.179443,398.733551 833.552612,410.941345 817.506897,415.574615   C817.174133,415.670685 816.971069,416.215729 816.693115,416.569611   C831.505066,416.569611 846.158142,416.684235 860.808777,416.544678   C887.517761,416.290314 907.383362,403.089111 913.421265,379.906067   C915.963074,370.146637 916.414307,359.451080 915.731262,349.321594   C914.105042,325.204895 897.302673,305.956604 873.401733,303.240509   C854.916992,301.139862 836.002380,302.821198 817.878662,302.821198   C833.803345,307.189667 840.735901,319.822784 842.969727,335.514038   C844.369934,345.349731 844.358337,355.386444 844.966187,366.291229  M907.561707,284.471619   C907.561707,251.719223 907.561707,218.966827 907.561707,185.977783   C876.251587,185.977783 845.367920,185.977783 813.820251,185.977783   C845.014709,223.249710 875.827698,260.065735 907.561707,297.982300   C907.561707,292.711670 907.561707,289.083466 907.561707,284.471619  M717.527344,321.973083   C714.926086,319.519867 712.324829,317.066650 709.446289,314.351929   C709.446289,348.408081 709.446289,382.107025 709.446289,415.984436   C742.014893,415.984436 774.473755,415.984436 807.724976,415.984436   C777.447632,384.431244 747.729126,353.460419 717.527344,321.973083  z"/>
<path fill="#08B46A" opacity="1.000000" stroke="none" d=" M600.538757,1.000000   C600.999756,200.692505 600.999451,400.385010 600.999634,600.538757   C401.046967,601.000000 201.093933,601.000000 1.070453,601.000000   C1.070453,401.093964 1.070453,201.187881 1.070453,1.000000   C200.692413,1.000000 400.384979,1.000000 600.538757,1.000000  M182.676682,215.500092   C182.676682,205.712479 182.676682,195.924866 182.676682,185.872940   C158.840073,185.872940 135.493576,185.872940 112.240868,185.872940   C112.240868,262.920807 112.240868,339.595795 112.240868,416.207520   C135.862885,416.207520 159.084198,416.207520 182.676514,416.207520   C182.676514,349.374664 182.676514,282.937378 182.676682,215.500092  M459.505249,304.892517   C452.563477,303.343079 445.621735,301.793610 441.089020,300.781891   C446.942688,298.103394 455.438599,295.621002 462.304260,290.811432   C483.074768,276.261322 490.197388,241.338486 477.477661,217.567902   C466.201569,196.495178 447.191711,187.016876 424.170929,186.189545   C397.880981,185.244705 371.540619,185.703613 345.222260,185.535675   C345.121246,185.535034 345.021820,185.289459 344.921661,185.158279   C344.937988,185.292648 344.954315,185.427032 344.984589,185.676407   C347.200134,186.126984 349.465729,186.521072 351.698456,187.053070   C362.668457,189.666992 373.925690,191.468216 384.522491,195.160645   C399.237427,200.288025 408.276520,211.194733 411.229462,226.743698   C414.480988,243.864990 413.171234,260.919769 409.953949,277.847076   C408.050568,287.861481 404.420837,297.047882 392.188385,301.159546   C407.907745,304.741272 414.522430,315.012268 417.289215,328.445648   C421.267029,347.759094 421.265961,367.178528 417.635284,386.505096   C415.026062,400.394196 408.300659,411.357635 393.797455,415.783508   C393.627808,415.835297 393.589233,416.316467 393.491455,416.600189   C405.636444,416.600189 417.784637,416.774567 429.925446,416.548859   C441.052521,416.342041 452.265778,416.456848 462.632355,411.213104   C481.673462,401.581543 490.885895,385.577179 492.530365,364.864960   C494.512756,339.897034 485.547760,316.117828 459.505249,304.892517  M215.589371,321.920166   C214.887100,322.110443 214.184845,322.300690 213.482574,322.490936   C231.045746,322.945984 248.525940,323.062500 266.004028,322.919556   C294.603699,322.685608 329.997986,305.481110 333.514099,262.156433   C335.176300,241.674911 331.788269,222.462189 316.932648,207.082855   C304.308228,194.013397 288.661926,186.421890 270.355591,186.086319   C245.212967,185.625427 220.055557,185.970993 195.010178,185.970993   C202.260422,187.300949 209.737198,188.550568 217.161804,190.057205   C239.797150,194.650452 255.281097,206.988434 259.626923,230.591354   C263.280121,250.432434 262.590820,270.351807 259.306488,290.196869   C256.985901,304.218689 248.931229,313.322540 235.286484,317.240967   C229.068451,319.026642 222.706909,320.312653 215.589371,321.920166  M289.524597,358.817261   C286.416199,358.817261 283.307800,358.817261 280.280151,358.817261   C277.634064,385.301422 296.447601,411.562653 322.025757,414.791077   C340.935852,417.177917 360.226624,416.548309 379.347809,417.262573   C361.075348,406.793945 356.716644,400.785706 353.826172,380.023193   C352.868225,373.141998 352.575531,366.168182 351.942566,358.817200   C331.403381,358.817200 310.959869,358.817200 289.524597,358.817261  z"/>
<path fill="#FEFEFE" opacity="1.000000" stroke="none" d=" M998.650757,306.233704   C1031.019531,342.759918 1063.135742,379.021393 1095.767212,415.864594   C1093.904419,416.070343 1092.708984,416.316711 1091.513306,416.317688   C1064.519287,416.339661 1037.525024,416.386322 1010.531799,416.229980   C1008.519714,416.218353 1005.840027,415.285248 1004.607849,413.822540   C973.495605,376.890015 942.535767,339.829102 911.171509,302.339264   C912.584290,302.149353 913.609680,301.892029 914.635315,301.891113   C940.129700,301.868835 965.624939,301.973419 991.117554,301.762085   C994.788574,301.731659 996.446106,303.760437 998.650757,306.233704  z"/>
<path fill="#FDFDFD" opacity="1.000000" stroke="none" d=" M1021.199097,257.088440   C1021.050659,247.832184 1021.847839,238.881866 1020.482300,230.274673   C1017.290466,210.155502 1004.555969,197.790649 985.462524,192.192535   C976.746399,189.636978 967.562012,188.678696 958.589966,186.996109   C956.647827,186.631897 954.705566,186.268402 952.889160,185.928146   C980.388184,185.928146 1008.075684,184.695374 1035.612549,186.206879   C1080.912476,188.693436 1106.000366,237.552200 1082.844116,276.651245   C1073.147461,293.023865 1057.971680,300.762329 1039.355713,301.592804   C1027.099487,302.139618 1014.798950,301.696228 1002.033691,301.696228   C1017.850159,290.763855 1019.501282,274.155029 1021.199097,257.088440  z"/>
<path fill="#FDFDFD" opacity="1.000000" stroke="none" d=" M775.000000,301.754883   C765.692932,301.400787 756.696655,302.075256 748.114746,300.496735   C723.862549,296.036072 707.788635,276.790375 706.060730,251.416107   C705.285461,240.031265 705.738831,228.719742 710.136841,218.001572   C718.069092,198.670212 732.700684,187.489014 753.378113,186.085434   C770.205078,184.943222 787.171326,185.853317 804.619568,185.853317   C803.296387,186.426788 802.360046,186.892578 801.383301,187.246704   C790.288574,191.269073 783.653503,199.476532 780.664673,210.498917   C774.704895,232.477264 774.840759,254.608124 780.703247,276.576660   C784.020325,289.007050 791.911316,297.505035 804.499390,301.754883   C794.832947,301.754883 785.166443,301.754883 775.000000,301.754883  z"/>
<path fill="#FDFDFD" opacity="1.000000" stroke="none" d=" M844.973145,365.812073   C844.358337,355.386444 844.369934,345.349731 842.969727,335.514038   C840.735901,319.822784 833.803345,307.189667 817.878662,302.821198   C836.002380,302.821198 854.916992,301.139862 873.401733,303.240509   C897.302673,305.956604 914.105042,325.204895 915.731262,349.321594   C916.414307,359.451080 915.963074,370.146637 913.421265,379.906067   C907.383362,403.089111 887.517761,416.290314 860.808777,416.544678   C846.158142,416.684235 831.505066,416.569611 816.693115,416.569611   C816.971069,416.215729 817.174133,415.670685 817.506897,415.574615   C833.552612,410.941345 840.179443,398.733551 842.940186,383.623169   C843.983459,377.913086 844.311890,372.072388 844.973145,365.812073  z"/>
<path fill="#FCFCFC" opacity="1.000000" stroke="none" d=" M907.561707,284.963440   C907.561707,289.083466 907.561707,292.711670 907.561707,297.982300   C875.827698,260.065735 845.014709,223.249710 813.820251,185.977783   C845.367920,185.977783 876.251587,185.977783 907.561707,185.977783   C907.561707,218.966827 907.561707,251.719223 907.561707,284.963440  z"/>
<path fill="#FDFDFD" opacity="1.000000" stroke="none" d=" M717.768921,322.231323   C747.729126,353.460419 777.447632,384.431244 807.724976,415.984436   C774.473755,415.984436 742.014893,415.984436 709.446289,415.984436   C709.446289,382.107025 709.446289,348.408081 709.446289,314.351929   C712.324829,317.066650 714.926086,319.519867 717.768921,322.231323  z"/>
<path fill="#FDFEFE" opacity="1.000000" stroke="none" d=" M182.676605,216.000092   C182.676514,282.937378 182.676514,349.374664 182.676514,416.207520   C159.084198,416.207520 135.862885,416.207520 112.240868,416.207520   C112.240868,339.595795 112.240868,262.920807 112.240868,185.872940   C135.493576,185.872940 158.840073,185.872940 182.676682,185.872940   C182.676682,195.924866 182.676682,205.712479 182.676605,216.000092  z"/>
<path fill="#FDFFFE" opacity="1.000000" stroke="none" d=" M459.874176,305.002319   C485.547760,316.117828 494.512756,339.897034 492.530365,364.864960   C490.885895,385.577179 481.673462,401.581543 462.632355,411.213104   C452.265778,416.456848 441.052521,416.342041 429.925446,416.548859   C417.784637,416.774567 405.636444,416.600189 393.490479,416.598694   C393.589233,416.316467 393.627808,415.835297 393.797455,415.783508   C408.300659,411.357635 415.026062,400.394196 417.635284,386.505096   C421.265961,367.178528 421.267029,347.759094 417.289215,328.445648   C414.522430,315.012268 407.907745,304.741272 392.188385,301.159546   C404.420837,297.047882 408.050568,287.861481 409.953949,277.847076   C413.171234,260.919769 414.480988,243.864990 411.229462,226.743698   C408.276520,211.194733 399.237427,200.288025 384.522491,195.160645   C373.925690,191.468216 362.668457,189.666992 351.698456,187.053070   C349.465729,186.521072 347.200134,186.126984 344.984589,185.676407   C344.954315,185.427032 344.937988,185.292648 344.921631,185.158279   C345.021820,185.289459 345.121246,185.535034 345.222260,185.535675   C371.540619,185.703613 397.880981,185.244705 424.170929,186.189545   C447.191711,187.016876 466.201569,196.495178 477.477661,217.567902   C490.197388,241.338486 483.074768,276.261322 462.304260,290.811432   C455.438599,295.621002 446.942688,298.103394 441.089020,300.781891   C445.621735,301.793610 452.563477,303.343079 459.874176,305.002319  z"/>
<path fill="#FEFFFE" opacity="1.000000" stroke="none" d=" M215.999908,321.872742   C222.706909,320.312653 229.068451,319.026642 235.286484,317.240967   C248.931229,313.322540 256.985901,304.218689 259.306488,290.196869   C262.590820,270.351807 263.280121,250.432434 259.626923,230.591354   C255.281097,206.988434 239.797150,194.650452 217.161804,190.057205   C209.737198,188.550568 202.260422,187.300949 195.010178,185.970993   C220.055557,185.970993 245.212967,185.625427 270.355591,186.086319   C288.661926,186.421890 304.308228,194.013397 316.932648,207.082855   C331.788269,222.462189 335.176300,241.674911 333.514099,262.156433   C329.997986,305.481110 294.603699,322.685608 266.004028,322.919556   C248.525940,323.062500 231.045746,322.945984 213.482574,322.490936   C214.184845,322.300690 214.887100,322.110443 215.999908,321.872742  z"/>
<path fill="#FDFEFE" opacity="1.000000" stroke="none" d=" M290.020477,358.817230   C310.959869,358.817200 331.403381,358.817200 351.942566,358.817200   C352.575531,366.168182 352.868225,373.141998 353.826172,380.023193   C356.716644,400.785706 361.075348,406.793945 379.347809,417.262573   C360.226624,416.548309 340.935852,417.177917 322.025757,414.791077   C296.447601,411.562653 277.634064,385.301422 280.280151,358.817261   C283.307800,358.817261 286.416199,358.817261 290.020477,358.817230  z"/>
</svg>