<svg aria-labelledby="logo-title" xmlns="http://www.w3.org/2000/svg" preserveAspectRatio="xMinYMid meet" width="711" height="79" viewBox="0 0 711 79">
  <title id="logo-title">Sydsvenskan</title>
  <path class="logo-text" fill="#231F20" d="M622.8 15.8V2.6h-24.3v13.2h2.2a1.5 1.5 0 0 1 1.5 1.4v23.6h-.4L584.4 2.6h-20.8v13.2h2.3a1.5 1.5 0 0 1 1.5 1.4v44.6a1.5 1.5 0 0 1-1.5 1.5h-2.3v13h24v-13h-2.3a1.5 1.5 0 0 1-1.5-1.4V37.8h.4L602 76.4h17V17.2a1.5 1.5 0 0 1 1.5-1.4h2.3zm-86.5 27.1h-9l4.5-23.8h.4l4.1 23.9zm24.9 33.5v-13h-2c-.7 0-1.4-1-1.5-1.5L545.9 2.7h-33.7v13h3.3a1 1 0 0 1 1 1.1l-8.5 45c0 .6-.7 1.5-1.2 1.5h-3v13h24.5v-13h-2.9c-1.1 0-1.4-.7-1.3-1.4l1.1-6.1H539l1.1 6c.1.7-.2 1.6-1 1.6h-3v13h25.2zM501 15.8V2.6h-25.9v13.2h1.4a1 1 0 0 1 .9 1.4l-11.1 17.5V17.2a1.5 1.5 0 0 1 1.5-1.4h2.2V2.6h-24.5v13.2h2.2a1.5 1.5 0 0 1 1.5 1.4v44.6a1.5 1.5 0 0 1-1.5 1.5h-2.2v13H470v-13h-2.2a1.5 1.5 0 0 1-1.5-1.4V41l11 20.7a1 1 0 0 1-1 1.5h-1.1v13h25.7v-13h-2.6c-.6 0-1.2-1-1.5-1.4l-13.3-25.3 13-19.3c.2-.4 1-1.5 1.4-1.5h3.1zm-58.2 38.5a26.2 26.2 0 0 0-1.6-9.6c-3.4-8.8-14.7-11.6-22.5-14.6-3.9-1.4-8.3-3.2-8.3-8 0-3.7 3.6-6.4 7.1-6.4 6.2 0 7.5 4.6 7.5 9.7v1.2h15.5V9.3A34.1 34.1 0 0 0 418 .9c-14 0-24.8 6.5-24.8 21.7 0 8 2.4 14 9.8 17.8 5.1 2.7 16.6 6 20 9 1.7 1.6 2.4 3.3 2.4 6a7.1 7.1 0 0 1-7.4 7.5c-6.9 0-7.7-5-7.7-10.4v-1.7h-16.6v18.9a39.2 39.2 0 0 0 24.2 8c16.2 0 25-9 25-23.4zm-52-38.5V2.6h-24.2v13.2h2.2a1.5 1.5 0 0 1 1.5 1.4v23.6h-.4L352.5 2.6h-20.8v13.2h2.3a1.5 1.5 0 0 1 1.5 1.4v44.6a1.5 1.5 0 0 1-1.5 1.6h-2.2v13h23.8v-13h-2.2a1.5 1.5 0 0 1-1.5-1.5V37.8h.4l17.8 38.6h17V17.2a1.5 1.5 0 0 1 1.5-1.4h2.3zM327 76.4v-25h-16.1v9a1.5 1.5 0 0 1-1.5 1.5h-12.8V44.5h17V31.8h-17V17h12.8a1.5 1.5 0 0 1 1.5 1.5v7H327v-23h-51.2v13.2h2.3a1.5 1.5 0 0 1 1.5 1.4v44.6a1.5 1.5 0 0 1-1.5 1.5h-2.3v13H327zm-54.4-60.6V2.6h-24.5v13.2h3.2c.8 0 1 .7 1 1.4l-2.9 17.2-4.4 25.5h-.4L240 34.4l-3.3-17.1c-.1-.6.1-1.5.9-1.5h3V2.6H215v13.2h3c.6 0 1 1 1 1.4l11.7 59.2h27l11.5-59.1c.1-.5.5-1.5 1-1.5h2.3zm-58.2 38.5a26.2 26.2 0 0 0-1.6-9.6c-3.4-8.8-14.7-11.6-22.5-14.6-3.8-1.4-8.3-3.2-8.3-8 0-3.7 3.6-6.4 7.1-6.4 6.2 0 7.5 4.6 7.5 9.7v1.2h15.6V9.3A34.1 34.1 0 0 0 189.6.9c-14 0-24.9 6.5-24.9 21.7 0 8 2.5 14 9.8 17.8 5.2 2.7 16.7 6 20 9 1.8 1.6 2.4 3.3 2.4 6a7.1 7.1 0 0 1-7.3 7.5c-7 0-7.7-5-7.7-10.4v-1.7h-16.7v18.9a39.2 39.2 0 0 0 24.2 8c16.2 0 25-9 25-23.4zm-70.8-.7c0 5.7-1.8 8.3-8 8.3h-6V17h6c6.2 0 8 2.6 8 8.4v28zm17.2-1.1V26.4c0-16.8-6.8-23.7-23.5-23.7h-28.6v13h2.2a1.5 1.5 0 0 1 1.5 1.5v44.6a1.5 1.5 0 0 1-1.5 1.5h-2.3v13h28.8c16.8 0 23.4-7.2 23.4-23.9zm-55.6-36.7V2.6H80.8v13.2H83a1 1 0 0 1 .8 1.4l-5.6 14.4h-.4L73 17.2c-.2-.6 0-1.4.8-1.4h1.8V2.6h-25v13.2H53c.6 0 1.3 1 1.5 1.4l14 31.7v13a1.5 1.5 0 0 1-1.5 1.5h-2.2v13h24.6v-13H87a1.5 1.5 0 0 1-1.4-1.5V49.4l15.6-32.1c.2-.5 1-1.5 1.5-1.5h2.4zM49.7 54.3a26.2 26.2 0 0 0-1.6-9.6C44.7 35.8 33.4 33 25.6 30c-3.9-1.4-8.3-3.2-8.3-8 0-3.7 3.6-6.4 7.1-6.4 6.2 0 7.5 4.6 7.5 9.7v1.2h15.5V9.3A34.1 34.1 0 0 0 24.8.9C10.8 1 0 7.4 0 22.6c0 8 2.5 14 9.8 17.8 5.1 2.7 16.6 6 20 9 1.8 1.6 2.4 3.3 2.4 6a7.1 7.1 0 0 1-7.4 7.5c-6.9 0-7.6-5-7.6-10.4v-1.7H.4v18.9a39.2 39.2 0 0 0 24.2 8c16.2 0 25-9 25-23.4z"></path>
  <path fill="#DF1B50" d="M670.9 0a39.3 39.3 0 1 1-39.5 39.3A39.3 39.3 0 0 1 671 0"></path>
  <path fill="#FFF" d="m680.3 30.2.9-1c0 .3.2.6.4.8h.7l.2.6a27.5 27.5 0 0 0-3.8 2l.2.3a1.2 1.2 0 0 0-.8 1l-1.3.3-.7-3.2 4.2-.8zm-3.9-13.8a1 1 0 0 1 1 .8c0 .6.2.7-.6 1v-.1a.3.3 0 0 0-.2-.2v-.3c-.5-.2-.2-.3-.5-.3h-.2c0-.2-.5-.2-.5-.2a1 1 0 0 1 1-.7zM673.6 34a27.5 27.5 0 0 1-5.9 2.3l-.3-.9c1.8-.5 3.5-1.2 5-1.8l1.2.4zm-10.3 13.6-.8-.6.5.9-.9.4h1v1l.5-.8.9.5-.5-1 .9-.4h-1.1v-1l-.5 1zm3.5-35.3a.6.6 0 0 1-.2.5 1.7 1.7 0 0 0-1.4-1.5 1.7 1.7 0 0 0-.9.2 2.2 2.2 0 0 1 1 1.8 9.9 9.9 0 0 1-1.4.2 13 13 0 0 1-1.6-.2l-.2 1.3c-.4 0-.8-.6-1.2-.6l-2.8.8-2.2-.2c-.4 0-1.2 0-1.2.4s.2.4.2.5l-.2.1c-.4 0-.6-.4-.9-.4-1 .4-1.8 1.1-1.8 1.8 0 .8 2.4.5 3.6.8-1 .1-2.4.4-3 1.3.3.7 1 1.7 1.7 1.7s1.1-1.2 2-1.2c1.2 0 1.8 1.2 3.3 1.2a10.3 10.3 0 0 0 3-1c-4.5 2.9-8.8 5.5-8.8 10.3a8.6 8.6 0 0 0 1 4.3c-.8-.4-4.6-2-6-2A2.5 2.5 0 0 0 647 34a8.7 8.7 0 0 0 1 3.3c1.2 2 1.4 4.5 1.8 6.7.1.9 1.6.7 2 1.5.6 1.8 1.6 3.9 3.7 3.9V45a3.7 3.7 0 0 1-1.2.2 2.4 2.4 0 0 1-1-.2l.1-1.3c-.2-.5-1-.9-1.4-1.2a26.7 26.7 0 0 1-1-5.8c1.4 1.3 4.7 3.8 6 3.8a1.5 1.5 0 0 0 1-.5 27.5 27.5 0 0 0 2.8 3 2.5 2.5 0 0 1-1.6 1c-.8 0-1.5-1-1.6-1.8l-.9.4a3.7 3.7 0 0 0 3.3 3.8 1.2 1.2 0 0 1-.6 1l1 .8c1.8-.5 1.4-2 2.9-3.1 2.8 2 5.7 2.7 10 2.7a7.3 7.3 0 0 0-.4 2.3c0 4.5 3 6 7.3 7.6a54.7 54.7 0 0 1-5.8 6.8l.5 1-1.6.3c-1.2.6-1.9 1.4-1.9 2.5h4.8a5.9 5.9 0 0 1 .8-1.5l-.8-.7a1.5 1.5 0 0 1 1.3-.6c1.4-2.8 6.7-7.2 6.7-8.2a.5.5 0 0 0-.3-.4c-1.6-.9-2.7-2-2.7-3.2 0-1.6 2.5-2.9 3.4-4a6.5 6.5 0 0 0 1.2-3.8 7.6 7.6 0 0 0-.7-3.3 2.1 2.1 0 0 1 1.8-1c1.2 0 1.6 1 1.6 2.3 0 1.6-1.2 3.6-1.2 5.3a5.2 5.2 0 0 0 5.5 5.5c1.8 0 3.9-.2 4.6-1-3-.2-4.3-1.2-4.4-2.7a2.7 2.7 0 0 0 2 .9 2.1 2.1 0 0 0 2.2-1.4c-7.3 0-1-12.2-7.5-12.2-3 0-3.9 2.4-5.3 2.9-1.4-2-3.4-2.3-5.4-2.7l5.9-2-1-3c.5-.2 1.7-.4 1.7-1.2 0-2-1.6-4.5-2-5.8-.2-.7-2.9-1.8-2.9-2 0-.4.5-.6.5-.8a.3.3 0 0 0-.1-.2c.3-.5 1.2-.4 1.7-1.2.4.3.6.5 1 .5a.2.2 0 0 0 .2-.2 2 2 0 0 0-.4-1.2 12.2 12.2 0 0 1 3-1.4 6 6 0 0 0-2.7-4 17 17 0 0 1-2.5 2.5 2.8 2.8 0 0 0-1.2-.7c-.1 0-.3 0-.3.2 0 .4.3.8.5 1.1a6.8 6.8 0 0 1-2 .7c0 .3.3.5.3.6h-.3s-.8.9-.8 1.3c0 .6 1 .7 1 1.3l-.2.5a2.7 2.7 0 0 0-1.4-.4c-.8 0-2.1 0-3 .2l1.4-1.9a1 1 0 0 0-.4-.6 2.2 2.2 0 0 1 1.2-.7l.4.2c.2 0 .4-.1.4-.3l.6.7.5-.6a7.2 7.2 0 0 1-1.1-1 2.2 2.2 0 0 0 1.4-1.6 1.9 1.9 0 0 0-1.9-2c-.7 0-1.5.5-1.5 1.1v-.4a3.4 3.4 0 0 1 2.4-2.7l-4.1-1.9a6 6 0 0 0-.5 2.3 5.8 5.8 0 0 0 1.4 4.2l-.2.8.1.4-.6.7-.5-.2c-1 1.6-2.5 3-2.5 4.7 0 1.6 3.5 1.4 4.5 1.6-1.9 1.9-2.8 4.5-4.7 5.8a3 3 0 0 0 1.5.8 12.7 12.7 0 0 1-2 .8c-1.8-1.4-3.7-2.3-3.7-5.1a3 3 0 0 0 .6 0 2.4 2.4 0 0 0 1.3-.5 3 3 0 0 1-1.7-2.2 1.7 1.7 0 0 0 1.2.4 2.4 2.4 0 0 0 1.7-.6 2 2 0 0 1-1.4-1.9 1.4 1.4 0 0 1 .1-.5.8.8 0 0 0 .4 0 2.9 2.9 0 0 0 2.1-1.1c-1.2 0-1.4-.8-1.4-1.2a.4.4 0 0 1 0-.3.5.5 0 0 0 .4 0 2 2 0 0 0 1.7-1c-2.3 0-1.3-1.8-2-3 .7-.7 1.6-.7 2.4-1.5l.3-.4a12.2 12.2 0 0 1-2.2.2l1.3-1.3a14.4 14.4 0 0 1-2.2.3 2.7 2.7 0 0 1-.8 0 3.5 3.5 0 0 0 0-.9 1.7 1.7 0 0 0-1.6-1.8c.3.4.5.9.5 1.4z"></path>
</svg>